<svg width="90" height="46" viewBox="0 0 90 46" fill="none" xmlns="http://www.w3.org/2000/svg">
<g id="Layer_1">
<path id="Vector" d="M24.03 42.5435C22.995 42.5435 22.2075 41.9824 22.2075 41.0734H23.1075C23.1143 41.1852 23.1441 41.2945 23.1949 41.3944C23.2457 41.4944 23.3166 41.5828 23.403 41.6543C23.4895 41.7259 23.5897 41.7789 23.6976 41.8103C23.8054 41.8416 23.9186 41.8505 24.03 41.8365C24.615 41.8365 24.9525 41.5111 24.9525 41.0846C24.9525 39.839 22.2188 40.647 22.2188 38.7616C22.2188 37.8638 22.9388 37.3027 23.985 37.3027C24.1923 37.2762 24.4028 37.2914 24.6042 37.3474C24.8055 37.4034 24.9935 37.4991 25.1571 37.6288C25.3207 37.7585 25.4566 37.9197 25.5567 38.1027C25.6568 38.2857 25.7192 38.4868 25.74 38.6943H24.8063C24.7782 38.4916 24.672 38.3079 24.5102 38.1821C24.3484 38.0564 24.1439 37.9986 23.94 38.021C23.4563 38.021 23.0738 38.2342 23.0738 38.728C23.0738 39.8502 25.7963 39.1656 25.7963 41.0397C25.7853 41.2563 25.7301 41.4684 25.6341 41.6629C25.5381 41.8575 25.4032 42.0304 25.2379 42.1712C25.0726 42.312 24.8801 42.4176 24.6725 42.4816C24.4648 42.5456 24.2462 42.5667 24.03 42.5435Z" fill="#CA003D"/>
<path id="Vector_2" d="M36.5288 42.5435C36.0076 42.5457 35.4976 42.3936 35.0632 42.1064C34.6288 41.8192 34.2896 41.4099 34.0886 40.9302C33.8877 40.4506 33.8339 39.9222 33.9342 39.4121C34.0345 38.902 34.2844 38.433 34.6521 38.0646C35.0198 37.6962 35.4888 37.445 35.9998 37.3428C36.5107 37.2406 37.0406 37.2919 37.5223 37.4903C38.004 37.6887 38.4158 38.0253 38.7056 38.4574C38.9953 38.8895 39.15 39.3976 39.15 39.9175C39.1576 40.2635 39.0951 40.6074 38.9663 40.9287C38.8374 41.25 38.6448 41.5421 38.4 41.7873C38.1552 42.0325 37.8633 42.2259 37.5417 42.3559C37.2202 42.4858 36.8756 42.5496 36.5288 42.5435ZM36.5288 41.8141C36.7697 41.8119 37.0076 41.76 37.2275 41.6616C37.4473 41.5631 37.6444 41.4203 37.8061 41.2421C37.9678 41.0639 38.0908 40.8542 38.1672 40.6262C38.2436 40.3982 38.2718 40.1569 38.25 39.9175C38.2216 39.5789 38.0951 39.2559 37.8858 38.9878C37.6765 38.7197 37.3936 38.5182 37.0715 38.4077C36.7493 38.2973 36.402 38.2828 36.0717 38.3659C35.7414 38.4491 35.4426 38.6263 35.2115 38.8759C34.9805 39.1256 34.8273 39.4369 34.7706 39.772C34.7139 40.107 34.7562 40.4513 34.8922 40.7627C35.0283 41.0742 35.2523 41.3395 35.5369 41.5262C35.8215 41.7128 36.1544 41.8129 36.495 41.8141" fill="#CA003D"/>
<path id="Vector_3" d="M47.3625 37.3701H50.3888V38.0547H48.2063V39.5585H49.9051V40.243H48.2063V42.4875H47.3625V37.3701Z" fill="#CA003D"/>
<path id="Vector_4" d="M58.2975 37.3701H61.875V38.0547H60.5137V42.4875H59.67V38.0547H58.2975V37.3701Z" fill="#CA003D"/>
<path id="Vector_5" d="M39.105 17.1587H37.3387V25.2612C38.154 26.3501 38.7534 27.5841 39.105 28.8972V17.1587Z" fill="#444444"/>
<path id="Vector_6" d="M22.1737 34.6768H23.94V22.3323C23.1753 21.4476 22.5769 20.4326 22.1737 19.3359V34.6768Z" fill="#444444"/>
<path id="Vector_7" d="M1.755 17.1587H0V34.6766H1.755V17.1587Z" fill="#444444"/>
<path id="Vector_8" d="M20.1262 22.2763H18.0675C17.5722 21.1314 16.7403 20.1633 15.6817 19.5001C14.6231 18.8369 13.3877 18.5097 12.1387 18.5618C8.24622 18.5618 5.25372 21.3673 5.25372 25.9011C5.25372 30.4349 8.24622 33.2741 12.1387 33.2741C13.0066 33.3012 13.871 33.154 14.6807 32.8413C15.4905 32.5286 16.2289 32.0567 16.8522 31.4538C17.4756 30.8508 17.9711 30.1291 18.3093 29.3313C18.6476 28.5336 18.8216 27.6762 18.8212 26.8101H11.43V25.3849H20.6887V26.653C20.6298 28.8657 19.6994 30.9661 18.0991 32.4994C16.4988 34.0328 14.3574 34.8755 12.1387 34.8452C10.9652 34.8653 9.80017 34.6444 8.71587 34.1963C7.63157 33.7482 6.65121 33.0825 5.83568 32.2406C5.02015 31.3987 4.38687 30.3985 3.97517 29.3021C3.56347 28.2057 3.38215 27.0366 3.44247 25.8674C3.38548 24.699 3.5691 23.5314 3.982 22.4365C4.3949 21.3416 5.02832 20.3427 5.84317 19.5015C6.65803 18.6602 7.63705 17.9945 8.71982 17.5453C9.80259 17.0961 10.9662 16.8729 12.1387 16.8896C13.8641 16.8141 15.5687 17.289 17.005 18.2456C18.4413 19.2021 19.5347 20.5904 20.1262 22.209" fill="#444444"/>
<path id="Vector_9" d="M40.545 17.1587H42.525L47.1038 26.2599L51.6488 17.1587H53.6175L47.9813 27.8647V34.6766H46.2263V27.8647L40.545 17.1587Z" fill="#444444"/>
<path id="Vector_10" d="M54.2925 17.1587H65.835V18.6064H60.9525V34.6766H59.1975V18.6064H54.2925V17.1587Z" fill="#444444"/>
<path id="Vector_11" d="M76.1738 18.5839H68.76V25.1265H75.42V26.5854H68.76V33.2289H76.1738V34.6766H67.005V17.125H76.1738V18.5839Z" fill="#444444"/>
<path id="Vector_12" d="M84.375 34.8565C80.865 34.8565 78.5475 32.8477 78.4462 30.1656H80.3025C80.4262 31.6245 81.5062 33.3864 84.375 33.3864C86.8162 33.3864 88.245 31.9612 88.245 30.1544C88.245 24.9922 78.5925 28.2466 78.5925 21.6592C78.5925 18.9434 80.8425 16.9683 84.2175 16.9683C87.5925 16.9683 89.5725 18.8199 89.8425 21.2327H87.9412C87.7462 20.3889 87.2512 19.6442 86.5479 19.1366C85.8446 18.629 84.9807 18.3929 84.1162 18.472C82.0575 18.472 80.3475 19.5943 80.3475 21.6031C80.3475 26.6531 90 23.5445 90 30.0197C90 32.4101 88.065 34.8116 84.375 34.8116" fill="#444444"/>
<g id="Clip path group">
<mask id="mask0_13_2" style="mask-type:luminance" maskUnits="userSpaceOnUse" x="21" y="9" width="19" height="28">
<g id="clip-path">
<path id="Vector_13" d="M26.7526 23.2861C32.2538 26.5967 36.8776 29.6379 39.0376 36.1468C41.6138 26.5742 31.3201 22.0741 28.3051 20.0317C25.2113 17.7087 22.6801 14.4205 23.8951 9.93164C19.5413 15.5428 22.6126 20.1888 26.7526 23.2412" fill="white"/>
</g>
</mask>
<g mask="url(#mask0_13_2)">
<g id="Group">
<path id="Vector_14" d="M35.3811 0.00855264L7.73071 17.3242L25.7831 46.0089L53.4334 28.6932L35.3811 0.00855264Z" fill="url(#paint0_linear_13_2)"/>
</g>
</g>
</g>
<g id="Clip path group_2">
<mask id="mask1_13_2" style="mask-type:luminance" maskUnits="userSpaceOnUse" x="25" y="10" width="5" height="4">
<g id="clip-path-2">
<path id="Vector_15" d="M25.875 12.1649C25.8728 12.4876 25.9669 12.8038 26.1453 13.0731C26.3236 13.3424 26.5783 13.5527 26.8768 13.6773C27.1754 13.8018 27.5043 13.835 27.8217 13.7726C28.1392 13.7101 28.4309 13.5549 28.6597 13.3267C28.8885 13.0984 29.0441 12.8075 29.1067 12.4908C29.1693 12.1741 29.136 11.846 29.0112 11.5482C28.8863 11.2504 28.6755 10.9964 28.4055 10.8184C28.1355 10.6405 27.8186 10.5466 27.495 10.5489C27.0654 10.5489 26.6533 10.7191 26.3495 11.0222C26.0457 11.3252 25.875 11.7363 25.875 12.1649Z" fill="white"/>
</g>
</mask>
<g mask="url(#mask1_13_2)">
<g id="Group_2">
<path id="Vector_16" d="M28.3947 9.17526L24.5309 11.2959L26.6568 15.1501L30.5205 13.0295L28.3947 9.17526Z" fill="url(#paint1_linear_13_2)"/>
</g>
</g>
</g>
</g>
<defs>
<linearGradient id="paint0_linear_13_2" x1="21.7282" y1="10.9901" x2="38.6874" y2="38.0711" gradientUnits="userSpaceOnUse">
<stop stop-color="#FF6B00"/>
<stop offset="0.65" stop-color="#DB0032"/>
<stop offset="1" stop-color="#DB0032"/>
</linearGradient>
<linearGradient id="paint1_linear_13_2" x1="25.1425" y1="5.46451" x2="29.9769" y2="14.2728" gradientUnits="userSpaceOnUse">
<stop stop-color="#FF6B00"/>
<stop offset="0.65" stop-color="#DB0032"/>
<stop offset="1" stop-color="#DB0032"/>
</linearGradient>
</defs>
</svg>
